<mxfile host="app.diagrams.net" modified="2024-01-13T12:55:46.262Z" agent="Mozilla/5.0 (Windows NT 10.0; Win64; x64) AppleWebKit/537.36 (KHTML, like Gecko) Chrome/120.0.0.0 Safari/537.36" etag="yeL_okbqZeH9fEXOQW2e" version="22.1.18" type="device">
  <diagram id="R2lEEEUBdFMjLlhIrx00" name="Page-1">
    <mxGraphModel dx="818" dy="737" grid="1" gridSize="10" guides="1" tooltips="1" connect="1" arrows="1" fold="1" page="1" pageScale="1" pageWidth="850" pageHeight="1100" math="0" shadow="0" extFonts="Permanent Marker^https://fonts.googleapis.com/css?family=Permanent+Marker">
      <root>
        <mxCell id="0" />
        <mxCell id="1" parent="0" />
        <mxCell id="RFPjFBGY6BLKkOslXxzr-32" value="profile" style="swimlane;childLayout=stackLayout;horizontal=1;startSize=50;horizontalStack=0;rounded=1;fontSize=14;fontStyle=0;strokeWidth=2;resizeParent=0;resizeLast=1;shadow=0;dashed=0;align=center;arcSize=4;whiteSpace=wrap;html=1;" parent="1" vertex="1">
          <mxGeometry x="60" y="30" width="160" height="160" as="geometry" />
        </mxCell>
        <mxCell id="RFPjFBGY6BLKkOslXxzr-33" value="+&lt;u&gt;experience&lt;br style=&quot;border-color: var(--border-color);&quot;&gt;&lt;/u&gt;+expertise&lt;br&gt;+birthdate&lt;br&gt;+gitlab&lt;br&gt;+title&lt;br&gt;+about&lt;br&gt;+profilePicture" style="align=left;strokeColor=none;fillColor=none;spacingLeft=4;fontSize=12;verticalAlign=top;resizable=0;rotatable=0;part=1;html=1;" parent="RFPjFBGY6BLKkOslXxzr-32" vertex="1">
          <mxGeometry y="50" width="160" height="110" as="geometry" />
        </mxCell>
        <mxCell id="RFPjFBGY6BLKkOslXxzr-34" value="user" style="swimlane;childLayout=stackLayout;horizontal=1;startSize=50;horizontalStack=0;rounded=1;fontSize=14;fontStyle=0;strokeWidth=2;resizeParent=0;resizeLast=1;shadow=0;dashed=0;align=center;arcSize=4;whiteSpace=wrap;html=1;" parent="1" vertex="1">
          <mxGeometry x="60" y="350" width="160" height="160" as="geometry" />
        </mxCell>
        <mxCell id="RFPjFBGY6BLKkOslXxzr-35" value="+&lt;u&gt;username&lt;/u&gt;&lt;br&gt;+password&lt;br&gt;+name&lt;br&gt;+email&lt;br&gt;+firstname&lt;br&gt;+preposition&lt;br&gt;+lastname" style="align=left;strokeColor=none;fillColor=none;spacingLeft=4;fontSize=12;verticalAlign=top;resizable=0;rotatable=0;part=1;html=1;" parent="RFPjFBGY6BLKkOslXxzr-34" vertex="1">
          <mxGeometry y="50" width="160" height="110" as="geometry" />
        </mxCell>
        <mxCell id="RFPjFBGY6BLKkOslXxzr-36" value="question" style="swimlane;childLayout=stackLayout;horizontal=1;startSize=50;horizontalStack=0;rounded=1;fontSize=14;fontStyle=0;strokeWidth=2;resizeParent=0;resizeLast=1;shadow=0;dashed=0;align=center;arcSize=4;whiteSpace=wrap;html=1;" parent="1" vertex="1">
          <mxGeometry x="350" y="130" width="160" height="160" as="geometry" />
        </mxCell>
        <mxCell id="RFPjFBGY6BLKkOslXxzr-37" value="+&lt;u&gt;title&lt;/u&gt;&lt;br&gt;+&lt;u&gt;content&lt;/u&gt;&lt;br&gt;+codeSnippet&lt;br&gt;+date&lt;br&gt;+tags&lt;br&gt;+creationDate&lt;br&gt;+dateModified" style="align=left;strokeColor=none;fillColor=none;spacingLeft=4;fontSize=12;verticalAlign=top;resizable=0;rotatable=0;part=1;html=1;" parent="RFPjFBGY6BLKkOslXxzr-36" vertex="1">
          <mxGeometry y="50" width="160" height="110" as="geometry" />
        </mxCell>
        <mxCell id="RFPjFBGY6BLKkOslXxzr-40" value="vote" style="swimlane;childLayout=stackLayout;horizontal=1;startSize=50;horizontalStack=0;rounded=1;fontSize=14;fontStyle=0;strokeWidth=2;resizeParent=0;resizeLast=1;shadow=0;dashed=0;align=center;arcSize=4;whiteSpace=wrap;html=1;" parent="1" vertex="1">
          <mxGeometry x="60" y="590" width="160" height="80" as="geometry" />
        </mxCell>
        <mxCell id="RFPjFBGY6BLKkOslXxzr-41" value="+&lt;u&gt;voteScore&lt;/u&gt;" style="align=left;strokeColor=none;fillColor=none;spacingLeft=4;fontSize=12;verticalAlign=top;resizable=0;rotatable=0;part=1;html=1;" parent="RFPjFBGY6BLKkOslXxzr-40" vertex="1">
          <mxGeometry y="50" width="160" height="30" as="geometry" />
        </mxCell>
        <mxCell id="RFPjFBGY6BLKkOslXxzr-42" value="answer" style="swimlane;childLayout=stackLayout;horizontal=1;startSize=50;horizontalStack=0;rounded=1;fontSize=14;fontStyle=0;strokeWidth=2;resizeParent=0;resizeLast=1;shadow=0;dashed=0;align=center;arcSize=4;whiteSpace=wrap;html=1;" parent="1" vertex="1">
          <mxGeometry x="350" y="360" width="160" height="130" as="geometry" />
        </mxCell>
        <mxCell id="RFPjFBGY6BLKkOslXxzr-43" value="+&lt;u&gt;content&lt;/u&gt;&lt;br&gt;+codeSnippet&lt;br&gt;+creationDate&lt;br&gt;+dateModified&lt;br&gt;+acceptedAnswer" style="align=left;strokeColor=none;fillColor=none;spacingLeft=4;fontSize=12;verticalAlign=top;resizable=0;rotatable=0;part=1;html=1;" parent="RFPjFBGY6BLKkOslXxzr-42" vertex="1">
          <mxGeometry y="50" width="160" height="80" as="geometry" />
        </mxCell>
        <mxCell id="RFPjFBGY6BLKkOslXxzr-52" value="" style="fontSize=12;html=1;endArrow=ERmandOne;startArrow=ERmandOne;rounded=0;entryX=0.5;entryY=1;entryDx=0;entryDy=0;exitX=0.5;exitY=0;exitDx=0;exitDy=0;endFill=0;" parent="1" source="RFPjFBGY6BLKkOslXxzr-34" target="RFPjFBGY6BLKkOslXxzr-33" edge="1">
          <mxGeometry width="100" height="100" relative="1" as="geometry">
            <mxPoint x="100" y="350" as="sourcePoint" />
            <mxPoint x="160" y="210" as="targetPoint" />
          </mxGeometry>
        </mxCell>
        <mxCell id="RFPjFBGY6BLKkOslXxzr-54" value="" style="fontSize=12;html=1;endArrow=ERzeroToMany;startArrow=ERmandOne;rounded=0;entryX=0.5;entryY=0;entryDx=0;entryDy=0;exitX=0.5;exitY=1;exitDx=0;exitDy=0;endFill=0;" parent="1" source="RFPjFBGY6BLKkOslXxzr-35" target="RFPjFBGY6BLKkOslXxzr-40" edge="1">
          <mxGeometry width="100" height="100" relative="1" as="geometry">
            <mxPoint x="300" y="740" as="sourcePoint" />
            <mxPoint x="300" y="560" as="targetPoint" />
          </mxGeometry>
        </mxCell>
        <mxCell id="RFPjFBGY6BLKkOslXxzr-55" value="" style="fontSize=12;html=1;endArrow=ERmandOne;startArrow=ERzeroToMany;rounded=0;entryX=0.5;entryY=1;entryDx=0;entryDy=0;exitX=0.5;exitY=0;exitDx=0;exitDy=0;endFill=0;startFill=0;" parent="1" source="RFPjFBGY6BLKkOslXxzr-42" target="RFPjFBGY6BLKkOslXxzr-37" edge="1">
          <mxGeometry width="100" height="100" relative="1" as="geometry">
            <mxPoint x="470" y="890" as="sourcePoint" />
            <mxPoint x="470" y="710" as="targetPoint" />
          </mxGeometry>
        </mxCell>
        <mxCell id="RFPjFBGY6BLKkOslXxzr-56" value="" style="fontSize=12;html=1;endArrow=ERmandOne;startArrow=ERzeroToMany;rounded=0;exitX=0;exitY=0.25;exitDx=0;exitDy=0;endFill=0;startFill=0;entryX=0.75;entryY=0;entryDx=0;entryDy=0;" parent="1" source="RFPjFBGY6BLKkOslXxzr-37" target="RFPjFBGY6BLKkOslXxzr-34" edge="1">
          <mxGeometry width="100" height="100" relative="1" as="geometry">
            <mxPoint x="690" y="620" as="sourcePoint" />
            <mxPoint x="170" y="208" as="targetPoint" />
            <Array as="points">
              <mxPoint x="180" y="208" />
            </Array>
          </mxGeometry>
        </mxCell>
        <mxCell id="RFPjFBGY6BLKkOslXxzr-57" value="" style="fontSize=12;html=1;endArrow=ERmandOne;startArrow=ERzeroToMany;rounded=0;exitX=-0.002;exitY=0.218;exitDx=0;exitDy=0;endFill=0;startFill=0;entryX=1;entryY=0.25;entryDx=0;entryDy=0;exitPerimeter=0;" parent="1" source="RFPjFBGY6BLKkOslXxzr-43" target="RFPjFBGY6BLKkOslXxzr-35" edge="1">
          <mxGeometry width="100" height="100" relative="1" as="geometry">
            <mxPoint x="440" y="590" as="sourcePoint" />
            <mxPoint x="270" y="742" as="targetPoint" />
          </mxGeometry>
        </mxCell>
        <mxCell id="RFPjFBGY6BLKkOslXxzr-58" value="" style="fontSize=12;html=1;endArrow=ERmandOne;startArrow=ERzeroToMany;rounded=0;endFill=0;startFill=0;entryX=0.5;entryY=1;entryDx=0;entryDy=0;exitX=1;exitY=0;exitDx=0;exitDy=0;" parent="1" source="RFPjFBGY6BLKkOslXxzr-41" target="RFPjFBGY6BLKkOslXxzr-43" edge="1">
          <mxGeometry width="100" height="100" relative="1" as="geometry">
            <mxPoint x="420" y="750" as="sourcePoint" />
            <mxPoint x="260" y="630" as="targetPoint" />
            <Array as="points">
              <mxPoint x="430" y="640" />
            </Array>
          </mxGeometry>
        </mxCell>
      </root>
    </mxGraphModel>
  </diagram>
</mxfile>
